<?xml version="1.0" standalone="no"?>
<!DOCTYPE svg PUBLIC "-//W3C//DTD SVG 20010904//EN"
 "http://www.w3.org/TR/2001/REC-SVG-20010904/DTD/svg10.dtd">
<svg version="1.0" xmlns="http://www.w3.org/2000/svg"
 width="225.000000pt" height="225.000000pt" viewBox="0 0 225.000000 225.000000"
 preserveAspectRatio="xMidYMid meet">
<metadata>
Created by potrace 1.14, written by Peter Selinger 2001-2017
</metadata>
<g transform="translate(0.000000,225.000000) scale(0.100000,-0.100000)"
fill="#000000" stroke="none">
<path d="M1427 1943 c-3 -5 36 -40 86 -78 117 -89 263 -235 352 -352 38 -50
73 -89 78 -86 16 10 0 279 -21 371 -10 46 -24 88 -30 94 -6 6 -48 20 -94 30
-92 21 -361 37 -371 21z"/>
<path d="M1094 1861 c-337 -140 -579 -386 -713 -724 l-31 -77 43 -71 c139
-233 363 -457 596 -596 l71 -43 77 31 c344 136 596 388 732 732 l31 77 -56 91
c-143 230 -353 439 -583 577 -39 23 -72 42 -74 42 -1 0 -43 -18 -93 -39z m333
-413 c109 -107 118 -120 103 -148 -16 -29 -39 -25 -82 17 l-38 37 -30 -29 -30
-29 36 -37 c70 -72 17 -125 -55 -55 l-37 36 -29 -30 -29 -30 37 -38 c42 -43
46 -66 16 -83 -19 -9 -27 -6 -63 30 l-42 41 -32 -32 -32 -32 41 -42 c36 -36
39 -44 30 -63 -17 -30 -40 -26 -83 16 l-38 37 -30 -29 -30 -29 36 -37 c70 -72
17 -125 -55 -55 l-37 36 -29 -30 -29 -30 37 -38 c20 -21 37 -45 37 -55 0 -15
-27 -37 -46 -37 -10 0 -194 181 -205 203 -12 22 5 57 28 57 10 0 34 -17 55
-37 l38 -37 30 29 30 29 -36 37 c-70 72 -17 125 55 55 l37 -36 29 30 29 30
-37 38 c-42 43 -46 66 -16 83 19 9 27 6 63 -30 l42 -41 32 32 32 32 -41 42
c-36 36 -39 44 -30 63 17 30 40 26 83 -16 l38 -37 30 29 30 29 -36 37 c-70 72
-17 125 55 55 l37 -36 29 30 29 30 -37 38 c-20 21 -37 45 -37 54 0 16 25 37
44 38 5 0 51 -42 103 -92z"/>
<path d="M307 824 c-13 -13 -7 -210 9 -304 24 -138 34 -163 75 -176 101 -34
418 -60 433 -36 2 4 -37 39 -87 77 -116 89 -253 225 -341 340 -38 50 -72 93
-76 98 -3 4 -9 4 -13 1z"/>
</g>
</svg>
